<svg xmlns="http://www.w3.org/2000/svg" width="24.874" height="24.874" viewBox="0 0 24.874 24.874"><defs><style>.a{fill:#49484a;}</style></defs><g transform="translate(0 -0.002)"><g transform="translate(0 0.002)"><path class="a" d="M24.713,14.9c-6.263-7.764-5.9-7.323-5.971-7.383l-.006-.006L9.991.172a.729.729,0,0,0-.785-.1l-.01,0L3.366,2.993a.729.729,0,0,0-.325.324L.078,9.2l0,.007A.736.736,0,0,0,0,9.5C0,9.5,0,9.512,0,9.52s0,0,0,0v10.2a.729.729,0,0,0,.291.582L6.16,24.722h0l.008.006a.742.742,0,0,0,.438.147h10.2a.739.739,0,0,0,.376-.1h0l7.336-4.421a.729.729,0,0,0,.353-.624V15.354A.729.729,0,0,0,24.713,14.9ZM1.458,19.362V13.29l3.5,8.7ZM7.1,23.418h0L2.591,12.2,14.925,23.418ZM1.629,9.357,4.234,4.189,9.081,1.765l6.236,20.04Zm14.786,11.07L10.956,2.884l6.551,5.5Zm7-1.112-5.752,3.466.141-1.55L18.83,9.925l4.587,5.686v3.7Z" transform="translate(0 -0.002)"/></g></g></svg>