<?xml version="1.0" encoding="UTF-8" standalone="no"?>
<svg id="svg4137" xmlns:rdf="http://www.w3.org/1999/02/22-rdf-syntax-ns#" xmlns="http://www.w3.org/2000/svg" height="2350.9" viewBox="0 0 3352.0467 2350.8748" width="3352" version="1.1" xmlns:cc="http://creativecommons.org/ns#" xmlns:dc="http://purl.org/dc/elements/1.1/">
<defs id="defs4141">
<filter id="filter4699" style="color-interpolation-filters:sRGB" height="1.0203" width="1.0293" y="-.010171" x="-.014630">
<feGaussianBlur id="feGaussianBlur4701" stdDeviation="13.923148"/>
</filter>
</defs>
<g id="g4184">
<path id="path4689" d="m82.308 3282.2c-0.989-39.5-35.333-76.2-71.441-76.2h-4.84v-41.5-41.5h3.5422c92.315 0 95.886-150.89 3.7559-158.68l-7.2981-0.6169v-32.673-32.673l8.8309-1.1757c88.423-11.773 89.723-143.65 1.5575-157.99l-10.386-1.7v-36.75-36.75h3.5422c92.358 0 95.93-150.88 3.7559-158.68l-7.2981-0.6169v-41.353-41.353h3.5422c32.139 0 63.994-28.277 71.534-63.5 9.82-45.9-27.203-95.5-71.26-95.5h-3.8163v-41.362-41.362l6.75-0.6838c91.162-9.2343 91.652-150.57 0.5481-158.27l-7.2981-0.6169v-41.206-41.206l7.385-0.6243c90.231-7.6273 90.222-150.71-0.011-158.34l-7.3744-0.6234v-36.728-36.728l3.125-0.625c1.7187-0.3437 4.3367-0.625 5.8176-0.625 15.126 0 39.423-14.074 50.863-29.463 36.836-49.549 8.7414-120.77-50.766-128.69l-9.0395-1.2035v-40.703-40.703l2.25-0.603c1.2375-0.3317 3.7962-0.6091 5.6861-0.6166 16.181-0.064 39.8-13.527 51.767-29.507 37.492-50.063 7.6121-122.91-52.954-129.09l-6.75-0.6896v-36.682-36.682l8.8309-1.1757c89.495-11.916 88.546-150.57-1.0809-157.85l-7.75-0.6295v-41.214-41.214l6.3299-0.64852c92.07-9.5 90.76-158.69-1.395-158.69h-4.938v-37.5-37.5h5.34c91.384 0 92.718-150.07 1.41-158.65l-6.75-0.63475v-32.71-32.71l7.25-0.61685c91.283-7.77 88.713-158.68-2.698-158.68h-4.5526v-32.79-32.79l10.298-1.6335c88.403-14.023 86.169-151.44-2.5612-157.54l-7.763-0.54 0.2633-33.1 0.2633-33.11 7.5-0.62505c32.938-2.745 62.331-31.558 67.525-66.194l0.702-4.681h47.271 47.271l0.6629 5.3058c10.95 87.639 135.92 86.352 151.01-1.556l0.644-3.75h40.26 40.26l1.2244 7.25c14.002 82.909 130.79 84.897 149.36 2.5429l2.21-9.793h36.299 36.299v2.34c0 9.6788 8.5936 29.835 17.328 40.644 40.863 50.564 120.38 29.68 133.36-35.025l1.59-7.959h36.163 36.163l1.2244 7.25c14.148 83.778 133.05 84.479 149.82 0.8843l1.6-8.134h36.154 36.154l1.2218 7.1251c14.55 84.85 135.48 84.23 150.28-0.76985l1.1-6.355h36.397 36.397v2.3117c0 14.445 13.656 39.571 27.915 51.362 45.258 37.423 112.93 11.535 123.15-47.106l1.1-6.568h40.172 40.172l1.7914 8.75c13.295 64.937 94.403 84.776 134.14 32.81 8.2025-10.728 16.523-30.729 16.523-39.72 0-1.7487 1.6-1.84 32.3-1.84h32.275l1.7191 8.3518c15.164 73.667 111.24 86.001 143.27 18.392 3.2523-6.8649 7.4638-20.917 7.4638-24.904 0-1.7563 1.9-1.84 40.4-1.84h40.386l0.7019 4.6808c13.122 87.501 137.93 87.501 151.05 0l0.7-4.681 32.136 0.0001022 32.136 0.0001022 0.1774 10.25c0.7219 41.71 34.737 77.65 73.573 77.735l6.75 0.01478v33.031c0 25.576-0.2821 33.109-1.25 33.373-0.6875 0.18811-4.175 0.8824-7.75 1.5429-80.196 14.816-79.773 140.34 0.5257 155.91l8.4677 1.6422v37.205 37.205l-3.75 0.64403c-53.208 9.1381-81.66 65.77-57.75 114.95 11.576 23.808 29.363 36.816 58.75 42.963l2.75 0.57524v32.936 32.936l-3.75 0.59531c-85.611 13.591-87.911 141.56-2.8351 157.7l6.5851 1.2492v37.169 37.169l-6.6022 1.1497c-83.37 14.518-82.649 147.04 0.8522 156.65l5.75 0.6616v41.768 41.768l-6.75 1.1726c-83.357 14.481-82.634 144.77 0.8708 156.79l5.3792 0.7739 0.2618 37.513 0.2618 37.513-6.8291 1.0753c-52.942 8.3364-80.993 76.343-50.392 122.17 13.163 19.714 37.111 35.198 54.439 35.198h2.781l-0.2609 41.694-0.261 41.694-7.5 1.3684c-51.829 9.4559-78.704 73.815-50.328 120.53 11.652 19.182 38.186 36.718 55.558 36.718h2.7701v37.455 37.455l-3.75 0.6161c-88.653 14.565-87.852 141.13 1 157.99l2.75 0.5217v41.436 41.436l-3.75 0.6161c-89.183 14.652-87.988 140.61 1.5 158.07l2.25 0.4391v41.462 41.462l-2.75 0.5217c-40.865 7.7524-67.25 38.754-67.25 79.016 0 40.3 26.347 71.257 67.25 79.016l2.75 0.5217v41.462 41.462l-2.75 0.5217c-88.901 16.865-89.702 143.42-1 157.99l3.75 0.6161v37.205 37.205l-8.4677 1.6422c-80.17 15.548-80.594 141.31-0.5257 155.92 3.575 0.6523 7.0625 1.34 7.75 1.5281 0.9678 0.2648 1.25 7.7883 1.25 33.328v32.986l-3.75 0.6161c-86.557 14.22-88.16 140.47-2 157.48l5.75 1.1355v36.785 36.785l-8.25 0.6847c-36.224 3.0064-62.939 27.718-71.193 65.853l-0.5952 2.75h-32.462-32.462l-0.5952-2.75c-8.6786-40.097-37.999-65.588-75.443-65.588-37.472 0-66.758 25.46-75.443 65.588l-0.5952 2.75h-40.512c-31.573 0-40.583-0.2758-40.832-1.25-0.1758-0.6875-1.0699-4.4-1.9868-8.25-18.498-77.675-130.95-77.294-147.63 0.5-0.6483 3.025-1.3948 6.2875-1.6588 7.25-0.6214 2.2652-65.151 2.7561-65.728 0.5-0.1758-0.6875-1.0699-4.4-1.9868-8.25-19.507-81.91-130.98-76.863-149.07 6.75l-0.5952 2.75h-40.512c-31.547 0-40.594-0.2766-40.88-1.25-0.202-0.6875-1.0832-4.4-1.9582-8.25-16.419-72.239-116.12-79.512-143.92-10.5-2.3703 5.8827-3.1087 8.3769-5.1071 17.25l-0.6193 2.75h-36.512c-28.347 0-36.594-0.2795-36.88-1.25-0.202-0.6875-1.094-4.4-1.9823-8.25-18.36-79.578-132.17-76.705-148.56 3.75l-1.1713 5.75h-36.46c-28.306 0-36.543-0.2796-36.828-1.25-0.202-0.6875-1.0915-4.3747-1.9768-8.1939-18.104-78.1-134.98-76.566-148.1 1.9439-1.3938 8.3435 2.7505 7.5559-38.214 7.2622l-36.578-0.2622-1.8149-7.6926c-19.11-80.998-132.04-79.136-148.85 2.4548l-1.1867 5.7623-36.576-0.2623-36.576-0.2622-1.8149-7.6926c-19.112-81.007-132.04-79.154-148.84 2.4426l-1.1841 5.75h-40.701-40.701l-1.2337-6.5037c-15.555-81.999-132.26-81.41-149.18 0.7537l-1.1841 5.75-47.179-0.01-47.179-0.01-0.2185-8.7446z" transform="matrix(0 1 1 0 27.416 27.416)" filter="url(#filter4699)"/>
<path id="path4687" d="m3303.7 103.72c-39.592-0.9891-76.244-35.333-76.244-71.442v-4.84h-41.5-41.5v3.5422c0 92.315-150.89 95.886-158.68 3.7559l-0.6169-7.2981h-32.673-32.673l-1.1757 8.8309c-11.773 88.423-143.65 89.723-157.99 1.5575l-1.6896-10.385h-36.75-36.75v3.5422c0 92.358-150.88 95.93-158.68 3.7559l-0.6169-7.2981h-41.353-41.353v3.5422c0 32.139-28.277 63.994-63.5 71.534-45.882 9.8209-95.5-27.203-95.5-71.259v-3.8163h-41.362-41.362l-0.6838 6.75c-9.2343 91.163-150.57 91.652-158.27 0.5481l-0.6169-7.2981h-41.206-41.206l-0.6243 7.385c-7.6273 90.231-150.71 90.222-158.34-0.011l-0.6234-7.3744h-36.728-36.728l-0.625 3.125c-0.3437 1.7188-0.625 4.3367-0.625 5.8176 0 15.126-14.074 39.423-29.463 50.863-49.549 36.837-120.77 8.7414-128.69-50.766l-1.2035-9.0395h-40.703-40.703l-0.603 2.25c-0.3317 1.2375-0.6091 3.7963-0.6166 5.6861-0.064 16.181-13.527 39.8-29.507 51.767-50.063 37.492-122.91 7.6121-129.09-52.954l-0.6896-6.75h-36.682-36.682l-1.1757 8.8309c-11.916 89.495-150.57 88.546-157.85-1.0809l-0.6295-7.75h-41.214-41.214l-0.6485 6.3299c-9.4334 92.073-158.63 90.764-158.63-1.3948v-4.938h-37.5-37.5v5.34c0 91.384-150.07 92.718-158.65 1.41l-0.63475-6.75h-32.71-32.71l-0.61685 7.25c-7.7664 91.281-158.68 88.716-158.68-2.6974v-4.5526h-32.79-32.79l-1.6335 10.298c-14.08 88.404-151.5 86.174-157.6-2.557l-0.53355-7.7633-33.106 0.2633-33.106 0.2633-0.62505 7.5c-2.7451 32.939-31.558 62.331-66.194 67.525l-4.6808 0.7019v47.271 47.271l5.3058 0.6629c87.639 10.95 86.352 135.92-1.5558 151.01l-3.75 0.644v40.26 40.26l7.25 1.2244c82.909 14.002 84.897 130.79 2.5429 149.36l-9.7929 2.2085v36.299 36.299h2.34c9.6788 0 29.835 8.5936 40.644 17.328 50.564 40.863 29.68 120.38-35.025 133.36l-7.9591 1.5963v36.163 36.163l7.25 1.2244c83.778 14.148 84.479 133.05 0.8843 149.82l-8.1343 1.6315v36.154 36.154l7.1251 1.2218c84.85 14.55 84.23 135.48-0.76985 150.28l-6.3553 1.1067v36.397 36.397h2.3117c14.445 0 39.571 13.656 51.362 27.915 37.423 45.258 11.535 112.93-47.106 123.15l-6.5676 1.1437v40.172 40.172l8.75 1.7914c64.937 13.295 84.776 94.403 32.81 134.14-10.728 8.2025-30.729 16.523-39.72 16.523-1.7487 0-1.84 1.6019-1.84 32.275v32.275l8.3518 1.7191c73.667 15.164 86.001 111.24 18.392 143.27-6.8649 3.2523-20.917 7.4638-24.904 7.4638-1.7563 0-1.84 1.837-1.84 40.386v40.386l4.6808 0.7019c87.501 13.122 87.501 137.93 0 151.05l-4.6808 0.7019 0.000102 32.136 0.000102 32.136 10.25 0.1774c41.71 0.7219 77.65 34.737 77.735 73.573l0.0148 6.75h33.031c25.576 0 33.109-0.2821 33.373-1.25 0.18811-0.6875 0.8824-4.175 1.5429-7.75 14.816-80.196 140.34-79.773 155.91 0.5257l1.6422 8.4677h37.205 37.205l0.64403-3.75c9.1381-53.208 65.77-81.66 114.95-57.75 23.808 11.576 36.816 29.363 42.963 58.75l0.57524 2.75h32.936 32.936l0.59531-3.75c13.591-85.611 141.56-87.911 157.7-2.8351l1.2492 6.5851h37.169 37.169l1.1497-6.6022c14.518-83.37 147.04-82.649 156.65 0.8522l0.6616 5.75h41.768 41.768l1.1726-6.75c14.481-83.357 144.77-82.634 156.79 0.8708l0.7739 5.3792 37.513 0.2618 37.513 0.2618 1.0753-6.8291c8.3364-52.942 76.343-80.993 122.17-50.392 19.714 13.163 35.198 37.111 35.198 54.439v2.781l41.694-0.2609 41.694-0.261 1.3684-7.5c9.4559-51.829 73.815-78.704 120.53-50.328 19.182 11.652 36.718 38.186 36.718 55.558v2.7701h37.455 37.455l0.6161-3.75c14.565-88.653 141.13-87.852 157.99 1l0.5217 2.75h41.436 41.436l0.6161-3.75c14.652-89.183 140.61-87.988 158.07 1.5l0.4391 2.25h41.462 41.462l0.5217-2.75c7.7524-40.865 38.754-67.25 79.016-67.25 40.3 0 71.257 26.347 79.016 67.25l0.5217 2.75h41.462 41.462l0.5217-2.75c16.865-88.901 143.42-89.702 157.99-1l0.6161 3.75h37.205 37.205l1.6422-8.4677c15.548-80.17 141.31-80.594 155.92-0.5257 0.6523 3.575 1.34 7.0625 1.5281 7.75 0.2648 0.9678 7.7883 1.25 33.328 1.25h32.986l0.6161-3.75c14.22-86.557 140.47-88.16 157.48-2l1.1355 5.75h36.785 36.785l0.6847-8.25c3.0064-36.224 27.718-62.939 65.853-71.193l2.75-0.5952v-32.462-32.462l-2.75-0.5952c-40.097-8.6786-65.588-37.999-65.588-75.443 0-37.472 25.46-66.758 65.588-75.443l2.75-0.5952v-40.512c0-31.573-0.2758-40.583-1.25-40.832-0.6875-0.1758-4.4-1.0699-8.25-1.9868-77.675-18.498-77.294-130.95 0.5-147.63 3.025-0.6483 6.2875-1.3948 7.25-1.6588 2.2652-0.6214 2.7561-65.151 0.5-65.728-0.6875-0.1758-4.4-1.0699-8.25-1.9868-81.91-19.507-76.863-130.98 6.75-149.07l2.75-0.5952v-40.512c0-31.547-0.2766-40.594-1.25-40.88-0.6875-0.202-4.4-1.0832-8.25-1.9582-72.239-16.419-79.512-116.12-10.5-143.92 5.8827-2.3703 8.3769-3.1087 17.25-5.1071l2.75-0.6193v-36.512c0-28.347-0.2795-36.594-1.25-36.88-0.6875-0.202-4.4-1.094-8.25-1.9823-79.578-18.36-76.705-132.17 3.75-148.56l5.75-1.1713v-36.46c0-28.306-0.2796-36.543-1.25-36.828-0.6875-0.202-4.3747-1.0915-8.1939-1.9768-78.1-18.104-76.566-134.98 1.9439-148.1 8.3435-1.3938 7.5559 2.7505 7.2622-38.214l-0.2622-36.578-7.6926-1.8149c-80.998-19.11-79.136-132.04 2.4548-148.85l5.7623-1.1867-0.2623-36.576-0.2622-36.576-7.6926-1.8149c-81.007-19.112-79.154-132.04 2.4426-148.84l5.75-1.1841v-40.701-40.701l-6.5037-1.2337c-81.999-15.555-81.41-132.26 0.7537-149.18l5.75-1.1841-0.01-47.179-0.01-47.179-8.7446-0.2185z" fill="#f2f2f2"/>
<g id="g4178" transform="matrix(3.3165 0 0 3.3062 177.58 180.4)">
<rect id="rect4" y="0" x="0" height="600" width="900"/>
<rect id="rect6" height="100" width="900" y="100" x="0" fill="#fcdc04"/>
<rect id="rect8" height="100" width="900" y="200" x="0" fill="#d90000"/>
<rect id="rect10" height="100" width="900" y="400" x="0" fill="#fcdc04"/>
<rect id="rect12" height="100" width="900" y="500" x="0" fill="#d90000"/>
<circle id="circle14" cy="300" cx="450" r="93.5" fill="#fff"/>
<g id="g16" stroke="#000">
<path id="path18" fill="#d90000" d="m433.52 228.39-6.0644-11.17c2.3401-2.3401 6.2772-4.149 12.554-4.149 0 0.42563-0.63844 12.234-0.63844 12.234z"/>
<path id="path20" fill="#fcdc04" d="m439.37 225.41 0.85125-12.341s12.554-0.74404 19.362 7.4468c0.1064-0.1064-6.702 9.5742-6.702 9.5742z"/>
<path id="path22" fill="#d90000" d="m453.1 229.99 6.17-9.5742c4.149 4.3619 5.8508 7.4468 6.4892 12.128 0.10641 0.10641-9.787 2.4466-9.787 2.3401 0-0.10641-2.7658-4.7875-2.8722-4.8939z"/>
<path id="path24" d="m436.61 388.07s11.596-13.298 34.149-10.425c-3.4042-5.5323-14.362-4.8939-14.362-4.8939s-3.4042-25.851-0.74484-27.128c2.6594-1.2769 13.936 0.10641 13.936 0.10641 1.4889 0 4.0426-4.0426 2.0217-6.5956-2.0217-2.5538-7.9789-12.341-5.5323-14.256 2.4474-1.9145 15.745 1.0641 15.745 1.0641l-37.553-48.085s-3.8298-18.085 3.8298-26.809c9.2558-7.6597 8.2981-15.958 7.9789-15.851-1.2769-8.4045-14.042-14.469-22.66-6.702-5.1067 6.17-1.7025 10.851-1.7025 10.851s-13.404 3.617-13.936 5.9572c-0.53203 2.341 15.107-0.42481 15.107-0.42481l-1.4897 10.745s-30.426 27.659-7.1276 51.596c0.21282-0.10641 0.74485-1.0641 0.74485-1.0641s8.1917 10.107 16.808 12.341c8.0853 8.2981 7.3413 7.0212 7.3413 7.0212s1.5953 13.086 0.10641 15.639c-2.0217-0.63844-22.66-1.3825-25.746-0.21281-2.7658 0.85126-13.404 0.31922-10.745 17.66 2.0209-4.6811 3.8298-8.8302 3.8298-8.8302s-0.31922 6.2764 2.2345 8.5109c-0.42563-6.5964 2.4465-11.064 2.4465-11.064s0.53204 7.234 2.1273 8.2973c1.5961 1.0641 1.5961-11.702 10.426-10.638 8.8293 1.0641 15.213 0.74485 15.213 0.74485s2.9786 25 2.0209 27.341c-6.3836-1.4897-21.596 0.63844-22.553 4.4683 8.9357-0.53204 13.086 0.53122 13.086 0.53122s-7.234 6.3836-5.0003 10.107z"/>
<path id="path26" fill="#9ca69c" stroke="#9ca69c" d="m440.19 251.66s-22.139 24.402-12.588 43.075c0.50848-2.6041 0.28673-4.24 0.60595-4.1336-0.53203-0.31922 2.7455 2.2467 2.4961 1.7472 0.0699-1.35-0.99827-4.2433-0.99827-4.2433 0.99827 0.24936 1.9974 0.49954 2.9956 0.7489-0.5824-1.0819-1.1656-2.1631-1.748-3.245 1.415 0.16652 2.8291 0.33222 4.2441 0.49873 0 0-1.4978-3.9939-0.99828-3.9939 0.49874 0 3.4944 0.24937 3.4944 0.24937-6.2959-11.299-0.35658-20.682 2.4961-30.704z"/>
<path id="path28" fill="#9ca69c" stroke="#9ca69c" d="m447.88 230.73s1.1705 8.4045-3.4042 10.851c-0.74484 0.53203-3.617 1.4897-3.1914 3.1922 0.53203 2.3401 1.8081 1.9145 3.617 1.4889 4.7867-0.85125 10.319-11.064 2.9786-15.532z"/>
<circle id="circle30" cy="238" cx="438" r="1.8" fill="#fff"/>
<path id="path32" fill="#d90000" d="m432.56 244.99c-1.1705 0.95766-7.3404 7.3413-1.2769 9.6814 6.2772-1.7025 4.5747-2.8722 5.958-4.2555 0.0357-2.8722-3.1207-3.617-4.6811-5.4259z"/>
<path id="path34" fill="#9ca69c" stroke="#9ca69c" d="m445.97 305.31c-0.31922 1.3833-1.7017 6.4892 0.21281 10.425 5.3195-2.2337 7.7661-1.5961 9.575-0.42562-4.361-3.5106-6.0636-5.0003-9.7878-9.9998z"/>
<path id="path36" fill="#fff" stroke="#fff" d="m455.12 329.46 0.31922 11.915s4.1491 0.74485 6.0636 0c1.9153-0.74485-0.10641-8.2981-6.3828-11.915z"/>
<path id="path38" fill="#9ca69c" d="m485.22 330.94s-7.6597-18.511-27.234-23.192c-19.575-4.6811-17.022-25.532-15.426-26.809 0.85126-1.8089 1.4897-4.5747 7.1276-1.9145 5.6388 2.6594 31.596 15.744 35.32 16.383 3.7234 0.63844 0.53203 35.958 0.21281 35.533z"/>
<path id="path40" fill="#d90000" d="m466.61 307.65c-0.31922 0.21281 26.17 15.638 18.192 28.936 7.5541-5.0003 5.1067-13.723 5.1067-13.723s6.17 16.064-8.8301 23.937c1.5961 1.3833 2.6602 1.0632 2.6602 1.0632l-2.5538 2.5538s-1.1705 1.9145 8.9366-2.9794c-2.7666 2.2346-2.9786 3.8298-2.9786 3.8298s0.74404 2.1281 7.3404-3.617c-5.3195 5.7452-6.49 8.7237-6.49 8.6173 14.362-1.2769 45.639-47.979-9.8934-61.809 2.9794 3.0858 2.553 2.6602 2.553 2.6602z"/>
<path id="path42" fill="#fff" d="m467.78 303.07c3.617 2.553 4.8931 3.4042 5.3187 4.6811-3.2978-0.74404-6.2764-0.53204-6.2764-0.53204s-7.1276-6.8084-8.4045-7.3404c-0.95766 0-6.4892-3.5106-6.4892-3.5106-2.7658-1.3833-5.3187-10.957 4.8939-8.1917 10.531 4.9995 12.021 5.4259 12.021 5.4259 4.1848 1.3118 8.3688 2.6244 12.554 3.9362 2.4116 2.6951 4.8224 5.3902 7.234 8.0853 0 0-12.872-6.3836-14.468-6.49 3.5106 2.8722 5.5323 6.8084 5.5323 6.8084-4.0784-1.1705-7.6239-2.2337-11.915-2.8722z"/>
<path id="path44" stroke="#fff" d="m417.67 245.94s12.341-2.9786 13.83-2.553"/>
</g>
</g>
</g>
</svg>
